<svg xmlns="http://www.w3.org/2000/svg" width="1280" height="640" viewBox="0 0 1280 640" role="img" aria-labelledby="title desc">
  <title id="title">Word Viewer repository hero</title>
  <desc id="desc">A read-only document viewer with outline, document blocks, comments, media, and package diagnostics.</desc>
  <rect width="1280" height="640" fill="#15171b"/>
  <rect x="48" y="78" width="1184" height="500" rx="26" fill="#20242a" stroke="#3c444f" stroke-width="2"/>
  <text x="96" y="50" fill="#eef2f7" font-family="Arial" font-size="34" font-weight="700">Word Viewer</text>
  <text x="96" y="614" fill="#9aa6b5" font-family="Arial" font-size="20">Read-only text, structure, media, and package diagnostics</text>
  <rect x="88" y="118" width="290" height="398" rx="16" fill="#28303a"/>
  <rect x="430" y="118" width="360" height="398" rx="16" fill="#f8fafc"/>
  <rect x="830" y="118" width="322" height="398" rx="16" fill="#f8fafc"/>
  <g font-family="Arial">
    <text x="118" y="162" fill="#f8fafc" font-size="18" font-weight="700">Outline</text>
    <rect x="112" y="188" width="230" height="58" rx="10" fill="#3a4656" stroke="#7f93af"/>
    <text x="132" y="222" fill="#ffffff" font-size="17" font-weight="700">1 Executive summary</text>
    <rect x="112" y="266" width="230" height="58" rx="10" fill="#303945"/>
    <text x="132" y="300" fill="#d8e0eb" font-size="17">2 Data table</text>
    <rect x="112" y="344" width="230" height="58" rx="10" fill="#303945"/>
    <text x="132" y="378" fill="#d8e0eb" font-size="17">3 Review notes</text>
  </g>
  <g font-family="Arial">
    <text x="470" y="168" fill="#111827" font-size="28" font-weight="800">Document content</text>
    <text x="470" y="202" fill="#667085" font-size="16">word/document.xml</text>
    <rect x="470" y="238" width="280" height="78" rx="12" fill="#ffffff" stroke="#d7dce3"/>
    <text x="494" y="270" fill="#1f2937" font-size="18" font-weight="800">Executive summary</text>
    <text x="494" y="294" fill="#475467" font-size="15">Parsed from headings and paragraphs</text>
    <rect x="470" y="342" width="280" height="108" rx="12" fill="#ffffff" stroke="#d7dce3"/>
    <text x="494" y="376" fill="#1f2937" font-size="16" font-weight="800">Table</text>
    <line x1="494" y1="398" x2="726" y2="398" stroke="#d7dce3"/>
    <text x="494" y="426" fill="#475467" font-size="16">Rows</text>
    <text x="640" y="426" fill="#475467" font-size="16">Values</text>
  </g>
  <g font-family="Arial">
    <text x="870" y="168" fill="#111827" font-size="24" font-weight="800">Diagnostics</text>
    <rect x="870" y="204" width="232" height="60" rx="12" fill="#ecfdf3" stroke="#12b76a"/>
    <text x="894" y="242" fill="#027a48" font-size="17" font-weight="700">Read-only local parse</text>
    <rect x="870" y="292" width="232" height="60" rx="12" fill="#fff7ed" stroke="#f59e0b"/>
    <text x="894" y="330" fill="#92400e" font-size="17" font-weight="700">External links listed</text>
    <rect x="870" y="380" width="232" height="60" rx="12" fill="#eff6ff" stroke="#2e90fa"/>
    <text x="894" y="418" fill="#175cd3" font-size="17" font-weight="700">Media metadata</text>
  </g>
</svg>
