<svg xmlns="http://www.w3.org/2000/svg" width="1400" height="900" viewBox="0 0 1400 900" role="img" aria-labelledby="title desc">
  <title id="title">Word Viewer screenshot mock</title>
  <desc id="desc">A screenshot-style mock of the Word Viewer interface.</desc>
  <rect width="1400" height="900" fill="#20242b"/>
  <rect x="44" y="40" width="1312" height="820" rx="18" fill="#111318"/>
  <rect x="76" y="84" width="1248" height="88" rx="10" fill="#1e232b"/>
  <text x="108" y="138" fill="#f8fafc" font-family="Arial" font-size="28" font-weight="700">briefing-notes.docx</text>
  <rect x="1070" y="110" width="190" height="34" rx="8" fill="#2b3340"/>
  <text x="1094" y="133" fill="#cbd5e1" font-family="Arial" font-size="16">Filter</text>
  <rect x="76" y="196" width="310" height="628" rx="10" fill="#252b34"/>
  <rect x="416" y="196" width="908" height="628" rx="10" fill="#f8fafc"/>
  <text x="106" y="238" fill="#f8fafc" font-family="Arial" font-size="18" font-weight="700">Outline</text>
  <rect x="106" y="268" width="250" height="72" rx="10" fill="#3a4454" stroke="#8da2bf"/>
  <text x="132" y="302" fill="#ffffff" font-family="Arial" font-size="17" font-weight="700">1 Executive summary</text>
  <text x="132" y="326" fill="#cbd5e1" font-family="Arial" font-size="13">Heading1</text>
  <rect x="106" y="360" width="250" height="72" rx="10" fill="#303743"/>
  <text x="132" y="394" fill="#ffffff" font-family="Arial" font-size="17" font-weight="700">2 Table 1</text>
  <text x="132" y="418" fill="#cbd5e1" font-family="Arial" font-size="13">2 rows, 2 columns</text>
  <text x="460" y="260" fill="#111827" font-family="Arial" font-size="30" font-weight="800">Word Viewer Fixture</text>
  <text x="460" y="296" fill="#667085" font-family="Arial" font-size="16">Codex · Fixture Generator</text>
  <rect x="460" y="332" width="796" height="88" rx="12" fill="#ffffff" stroke="#d8dee8"/>
  <text x="490" y="368" fill="#111827" font-family="Arial" font-size="18" font-weight="800">Executive summary</text>
  <text x="490" y="396" fill="#394150" font-family="Arial" font-size="18">This document proves text extraction.</text>
  <rect x="460" y="450" width="382" height="146" rx="12" fill="#ffffff" stroke="#d8dee8"/>
  <rect x="874" y="450" width="382" height="146" rx="12" fill="#ffffff" stroke="#d8dee8"/>
  <text x="490" y="492" fill="#111827" font-family="Arial" font-size="18" font-weight="800">Table</text>
  <text x="904" y="492" fill="#111827" font-family="Arial" font-size="18" font-weight="800">Comments</text>
  <text x="490" y="532" fill="#394150" font-family="Arial" font-size="18">Name</text>
  <text x="650" y="532" fill="#394150" font-family="Arial" font-size="18">Value</text>
  <text x="904" y="532" fill="#394150" font-family="Arial" font-size="18">Check the read-only scope.</text>
  <rect x="460" y="632" width="796" height="92" rx="12" fill="#fff7ed" stroke="#f59e0b"/>
  <text x="490" y="686" fill="#92400e" font-family="Arial" font-size="20" font-weight="700">External relationships are listed as metadata only</text>
</svg>
